STARTFONT 2.1
COMMENT
COMMENT Converted from OpenType font "PixelFive-Regular.otf" by "otf2bdf 3.0".
COMMENT
FONT -FreeType-Pixel Five-Medium-R-Normal--5-50-72-72-P-47-ISO10646-1
SIZE 5 72 72
FONTBOUNDINGBOX 5 5 0 0
STARTPROPERTIES 19
FOUNDRY "FreeType"
FAMILY_NAME "Pixel Five"
WEIGHT_NAME "Medium"
SLANT "R"
SETWIDTH_NAME "Normal"
ADD_STYLE_NAME ""
PIXEL_SIZE 5
POINT_SIZE 50
RESOLUTION_X 72
RESOLUTION_Y 72
SPACING "P"
AVERAGE_WIDTH 47
CHARSET_REGISTRY "ISO10646"
CHARSET_ENCODING "1"
FONT_ASCENT 6
FONT_DESCENT 0
COPYRIGHT "-FreeType-Pixel Five-Medium-R-Normal--5-50-72-72-P-47-ISO10646-1"
_OTF_FONTFILE "PixelFive-Regular.otf"
_OTF_PSNAME "PixelFive-Regular"
ENDPROPERTIES
CHARS 439
STARTCHAR 0020
ENCODING 32
SWIDTH 1200 0
DWIDTH 6 0
BBX 0 0 0 0
BITMAP
ENDCHAR
STARTCHAR 0021
ENCODING 33
SWIDTH 1200 0
DWIDTH 6 0
BBX 1 5 2 0
BITMAP
80
80
80
00
80
ENDCHAR
STARTCHAR 0022
ENCODING 34
SWIDTH 1200 0
DWIDTH 6 0
BBX 3 2 1 3
BITMAP
A0
A0
ENDCHAR
STARTCHAR 0023
ENCODING 35
SWIDTH 1200 0
DWIDTH 6 0
BBX 5 5 0 0
BITMAP
50
F8
50
F8
50
ENDCHAR
STARTCHAR 0024
ENCODING 36
SWIDTH 1200 0
DWIDTH 6 0
BBX 5 5 0 0
BITMAP
78
A0
70
28
F0
ENDCHAR
STARTCHAR 0025
ENCODING 37
SWIDTH 1200 0
DWIDTH 6 0
BBX 3 5 1 0
BITMAP
80
20
40
80
20
ENDCHAR
STARTCHAR 0026
ENCODING 38
SWIDTH 1200 0
DWIDTH 6 0
BBX 5 5 0 0
BITMAP
40
A0
68
90
E8
ENDCHAR
STARTCHAR 0027
ENCODING 39
SWIDTH 1200 0
DWIDTH 6 0
BBX 1 2 2 3
BITMAP
80
80
ENDCHAR
STARTCHAR 0028
ENCODING 40
SWIDTH 1200 0
DWIDTH 6 0
BBX 2 5 2 0
BITMAP
40
80
80
80
40
ENDCHAR
STARTCHAR 0029
ENCODING 41
SWIDTH 1200 0
DWIDTH 6 0
BBX 2 5 1 0
BITMAP
80
40
40
40
80
ENDCHAR
STARTCHAR 002A
ENCODING 42
SWIDTH 1200 0
DWIDTH 6 0
BBX 3 4 1 1
BITMAP
40
E0
40
A0
ENDCHAR
STARTCHAR 002B
ENCODING 43
SWIDTH 1200 0
DWIDTH 6 0
BBX 5 5 0 0
BITMAP
20
20
F8
20
20
ENDCHAR
STARTCHAR 002C
ENCODING 44
SWIDTH 1200 0
DWIDTH 6 0
BBX 2 2 1 0
BITMAP
40
80
ENDCHAR
STARTCHAR 002D
ENCODING 45
SWIDTH 1200 0
DWIDTH 6 0
BBX 3 1 1 2
BITMAP
E0
ENDCHAR
STARTCHAR 002E
ENCODING 46
SWIDTH 1200 0
DWIDTH 6 0
BBX 1 1 2 0
BITMAP
80
ENDCHAR
STARTCHAR 002F
ENCODING 47
SWIDTH 1200 0
DWIDTH 6 0
BBX 5 5 0 0
BITMAP
08
10
20
40
80
ENDCHAR
STARTCHAR 0030
ENCODING 48
SWIDTH 1200 0
DWIDTH 6 0
BBX 5 5 0 0
BITMAP
70
98
A8
C8
70
ENDCHAR
STARTCHAR 0031
ENCODING 49
SWIDTH 1200 0
DWIDTH 6 0
BBX 3 5 1 0
BITMAP
40
C0
40
40
E0
ENDCHAR
STARTCHAR 0032
ENCODING 50
SWIDTH 1200 0
DWIDTH 6 0
BBX 5 5 0 0
BITMAP
70
88
30
40
F8
ENDCHAR
STARTCHAR 0033
ENCODING 51
SWIDTH 1200 0
DWIDTH 6 0
BBX 5 5 0 0
BITMAP
F0
08
30
08
F0
ENDCHAR
STARTCHAR 0034
ENCODING 52
SWIDTH 1200 0
DWIDTH 6 0
BBX 5 5 0 0
BITMAP
90
90
F8
10
10
ENDCHAR
STARTCHAR 0035
ENCODING 53
SWIDTH 1200 0
DWIDTH 6 0
BBX 5 5 0 0
BITMAP
F8
80
F0
08
F0
ENDCHAR
STARTCHAR 0036
ENCODING 54
SWIDTH 1200 0
DWIDTH 6 0
BBX 5 5 0 0
BITMAP
78
80
F0
88
70
ENDCHAR
STARTCHAR 0037
ENCODING 55
SWIDTH 1200 0
DWIDTH 6 0
BBX 5 5 0 0
BITMAP
F8
08
10
20
40
ENDCHAR
STARTCHAR 0038
ENCODING 56
SWIDTH 1200 0
DWIDTH 6 0
BBX 5 5 0 0
BITMAP
70
88
70
88
70
ENDCHAR
STARTCHAR 0039
ENCODING 57
SWIDTH 1200 0
DWIDTH 6 0
BBX 5 5 0 0
BITMAP
F8
88
F8
08
F0
ENDCHAR
STARTCHAR 003A
ENCODING 58
SWIDTH 1200 0
DWIDTH 6 0
BBX 1 3 2 1
BITMAP
80
00
80
ENDCHAR
STARTCHAR 003B
ENCODING 59
SWIDTH 1200 0
DWIDTH 6 0
BBX 2 4 1 0
BITMAP
40
00
40
80
ENDCHAR
STARTCHAR 003C
ENCODING 60
SWIDTH 1200 0
DWIDTH 6 0
BBX 3 5 1 0
BITMAP
20
40
80
40
20
ENDCHAR
STARTCHAR 003D
ENCODING 61
SWIDTH 1200 0
DWIDTH 6 0
BBX 3 3 1 1
BITMAP
E0
00
E0
ENDCHAR
STARTCHAR 003E
ENCODING 62
SWIDTH 1200 0
DWIDTH 6 0
BBX 3 5 1 0
BITMAP
80
40
20
40
80
ENDCHAR
STARTCHAR 003F
ENCODING 63
SWIDTH 1200 0
DWIDTH 6 0
BBX 4 5 1 0
BITMAP
E0
10
60
00
40
ENDCHAR
STARTCHAR 0040
ENCODING 64
SWIDTH 1200 0
DWIDTH 6 0
BBX 5 5 0 0
BITMAP
70
88
A8
90
40
ENDCHAR
STARTCHAR 0041
ENCODING 65
SWIDTH 1200 0
DWIDTH 6 0
BBX 5 5 0 0
BITMAP
20
50
70
88
88
ENDCHAR
STARTCHAR 0042
ENCODING 66
SWIDTH 1200 0
DWIDTH 6 0
BBX 5 5 0 0
BITMAP
E0
90
F0
88
F0
ENDCHAR
STARTCHAR 0043
ENCODING 67
SWIDTH 1200 0
DWIDTH 6 0
BBX 5 5 0 0
BITMAP
78
80
80
80
78
ENDCHAR
STARTCHAR 0044
ENCODING 68
SWIDTH 1200 0
DWIDTH 6 0
BBX 5 5 0 0
BITMAP
F0
88
88
88
F0
ENDCHAR
STARTCHAR 0045
ENCODING 69
SWIDTH 1200 0
DWIDTH 6 0
BBX 5 5 0 0
BITMAP
F8
80
E0
80
F8
ENDCHAR
STARTCHAR 0046
ENCODING 70
SWIDTH 1200 0
DWIDTH 6 0
BBX 5 5 0 0
BITMAP
F8
80
E0
80
80
ENDCHAR
STARTCHAR 0047
ENCODING 71
SWIDTH 1200 0
DWIDTH 6 0
BBX 5 5 0 0
BITMAP
78
80
B8
88
78
ENDCHAR
STARTCHAR 0048
ENCODING 72
SWIDTH 1200 0
DWIDTH 6 0
BBX 5 5 0 0
BITMAP
88
88
F8
88
88
ENDCHAR
STARTCHAR 0049
ENCODING 73
SWIDTH 1200 0
DWIDTH 6 0
BBX 5 5 0 0
BITMAP
F8
20
20
20
F8
ENDCHAR
STARTCHAR 004A
ENCODING 74
SWIDTH 1200 0
DWIDTH 6 0
BBX 5 5 0 0
BITMAP
78
10
10
90
60
ENDCHAR
STARTCHAR 004B
ENCODING 75
SWIDTH 1200 0
DWIDTH 6 0
BBX 5 5 0 0
BITMAP
90
A0
E0
90
88
ENDCHAR
STARTCHAR 004C
ENCODING 76
SWIDTH 1200 0
DWIDTH 6 0
BBX 5 5 0 0
BITMAP
80
80
80
80
F8
ENDCHAR
STARTCHAR 004D
ENCODING 77
SWIDTH 1200 0
DWIDTH 6 0
BBX 5 5 0 0
BITMAP
88
D8
A8
88
88
ENDCHAR
STARTCHAR 004E
ENCODING 78
SWIDTH 1200 0
DWIDTH 6 0
BBX 5 5 0 0
BITMAP
88
C8
A8
98
88
ENDCHAR
STARTCHAR 004F
ENCODING 79
SWIDTH 1200 0
DWIDTH 6 0
BBX 5 5 0 0
BITMAP
70
88
88
88
70
ENDCHAR
STARTCHAR 0050
ENCODING 80
SWIDTH 1200 0
DWIDTH 6 0
BBX 5 5 0 0
BITMAP
F0
88
F0
80
80
ENDCHAR
STARTCHAR 0051
ENCODING 81
SWIDTH 1200 0
DWIDTH 6 0
BBX 5 5 0 0
BITMAP
70
88
A8
98
78
ENDCHAR
STARTCHAR 0052
ENCODING 82
SWIDTH 1200 0
DWIDTH 6 0
BBX 5 5 0 0
BITMAP
F0
88
F0
B0
88
ENDCHAR
STARTCHAR 0053
ENCODING 83
SWIDTH 1200 0
DWIDTH 6 0
BBX 5 5 0 0
BITMAP
78
80
70
08
F0
ENDCHAR
STARTCHAR 0054
ENCODING 84
SWIDTH 1200 0
DWIDTH 6 0
BBX 5 5 0 0
BITMAP
F8
20
20
20
20
ENDCHAR
STARTCHAR 0055
ENCODING 85
SWIDTH 1200 0
DWIDTH 6 0
BBX 5 5 0 0
BITMAP
88
88
88
88
70
ENDCHAR
STARTCHAR 0056
ENCODING 86
SWIDTH 1200 0
DWIDTH 6 0
BBX 5 5 0 0
BITMAP
88
88
88
50
20
ENDCHAR
STARTCHAR 0057
ENCODING 87
SWIDTH 1200 0
DWIDTH 6 0
BBX 5 5 0 0
BITMAP
88
88
A8
A8
50
ENDCHAR
STARTCHAR 0058
ENCODING 88
SWIDTH 1200 0
DWIDTH 6 0
BBX 5 5 0 0
BITMAP
88
50
20
50
88
ENDCHAR
STARTCHAR 0059
ENCODING 89
SWIDTH 1200 0
DWIDTH 6 0
BBX 5 5 0 0
BITMAP
88
88
78
08
70
ENDCHAR
STARTCHAR 005A
ENCODING 90
SWIDTH 1200 0
DWIDTH 6 0
BBX 5 5 0 0
BITMAP
F8
10
20
40
F8
ENDCHAR
STARTCHAR 005B
ENCODING 91
SWIDTH 1200 0
DWIDTH 6 0
BBX 2 5 2 0
BITMAP
C0
80
80
80
C0
ENDCHAR
STARTCHAR 005C
ENCODING 92
SWIDTH 1200 0
DWIDTH 6 0
BBX 5 5 0 0
BITMAP
80
40
20
10
08
ENDCHAR
STARTCHAR 005D
ENCODING 93
SWIDTH 1200 0
DWIDTH 6 0
BBX 2 5 1 0
BITMAP
C0
40
40
40
C0
ENDCHAR
STARTCHAR 005E
ENCODING 94
SWIDTH 1200 0
DWIDTH 6 0
BBX 5 3 0 1
BITMAP
20
50
88
ENDCHAR
STARTCHAR 005F
ENCODING 95
SWIDTH 1200 0
DWIDTH 6 0
BBX 5 1 0 0
BITMAP
F8
ENDCHAR
STARTCHAR 0060
ENCODING 96
SWIDTH 1200 0
DWIDTH 6 0
BBX 2 2 1 3
BITMAP
80
40
ENDCHAR
STARTCHAR 0061
ENCODING 97
SWIDTH 1200 0
DWIDTH 6 0
BBX 5 4 0 0
BITMAP
70
90
90
68
ENDCHAR
STARTCHAR 0062
ENCODING 98
SWIDTH 1200 0
DWIDTH 6 0
BBX 4 5 1 0
BITMAP
80
E0
90
90
E0
ENDCHAR
STARTCHAR 0063
ENCODING 99
SWIDTH 1200 0
DWIDTH 6 0
BBX 4 4 1 0
BITMAP
70
80
80
70
ENDCHAR
STARTCHAR 0064
ENCODING 100
SWIDTH 1200 0
DWIDTH 6 0
BBX 4 5 1 0
BITMAP
10
70
90
90
70
ENDCHAR
STARTCHAR 0065
ENCODING 101
SWIDTH 1200 0
DWIDTH 6 0
BBX 4 4 1 0
BITMAP
60
90
A0
70
ENDCHAR
STARTCHAR 0066
ENCODING 102
SWIDTH 1200 0
DWIDTH 6 0
BBX 4 5 1 0
BITMAP
30
40
F0
40
40
ENDCHAR
STARTCHAR 0067
ENCODING 103
SWIDTH 1200 0
DWIDTH 6 0
BBX 4 4 1 0
BITMAP
70
90
50
E0
ENDCHAR
STARTCHAR 0068
ENCODING 104
SWIDTH 1200 0
DWIDTH 6 0
BBX 4 5 1 0
BITMAP
80
80
E0
90
90
ENDCHAR
STARTCHAR 0069
ENCODING 105
SWIDTH 1200 0
DWIDTH 6 0
BBX 2 5 2 0
BITMAP
80
00
80
80
C0
ENDCHAR
STARTCHAR 006A
ENCODING 106
SWIDTH 1200 0
DWIDTH 6 0
BBX 3 5 1 0
BITMAP
20
00
20
20
C0
ENDCHAR
STARTCHAR 006B
ENCODING 107
SWIDTH 1200 0
DWIDTH 6 0
BBX 4 5 1 0
BITMAP
80
80
90
E0
90
ENDCHAR
STARTCHAR 006C
ENCODING 108
SWIDTH 1200 0
DWIDTH 6 0
BBX 3 5 2 0
BITMAP
80
80
80
80
60
ENDCHAR
STARTCHAR 006D
ENCODING 109
SWIDTH 1200 0
DWIDTH 6 0
BBX 5 4 0 0
BITMAP
D0
A8
88
88
ENDCHAR
STARTCHAR 006E
ENCODING 110
SWIDTH 1200 0
DWIDTH 6 0
BBX 4 4 1 0
BITMAP
E0
90
90
90
ENDCHAR
STARTCHAR 006F
ENCODING 111
SWIDTH 1200 0
DWIDTH 6 0
BBX 4 4 1 0
BITMAP
60
90
90
60
ENDCHAR
STARTCHAR 0070
ENCODING 112
SWIDTH 1200 0
DWIDTH 6 0
BBX 4 4 1 0
BITMAP
E0
90
E0
80
ENDCHAR
STARTCHAR 0071
ENCODING 113
SWIDTH 1200 0
DWIDTH 6 0
BBX 5 4 0 0
BITMAP
70
90
70
18
ENDCHAR
STARTCHAR 0072
ENCODING 114
SWIDTH 1200 0
DWIDTH 6 0
BBX 4 4 1 0
BITMAP
E0
90
80
80
ENDCHAR
STARTCHAR 0073
ENCODING 115
SWIDTH 1200 0
DWIDTH 6 0
BBX 4 4 1 0
BITMAP
70
C0
30
E0
ENDCHAR
STARTCHAR 0074
ENCODING 116
SWIDTH 1200 0
DWIDTH 6 0
BBX 4 5 1 0
BITMAP
40
F0
40
40
30
ENDCHAR
STARTCHAR 0075
ENCODING 117
SWIDTH 1200 0
DWIDTH 6 0
BBX 4 4 1 0
BITMAP
90
90
90
70
ENDCHAR
STARTCHAR 0076
ENCODING 118
SWIDTH 1200 0
DWIDTH 6 0
BBX 3 4 1 0
BITMAP
A0
A0
A0
40
ENDCHAR
STARTCHAR 0077
ENCODING 119
SWIDTH 1200 0
DWIDTH 6 0
BBX 5 4 0 0
BITMAP
88
88
A8
58
ENDCHAR
STARTCHAR 0078
ENCODING 120
SWIDTH 1200 0
DWIDTH 6 0
BBX 4 4 1 0
BITMAP
90
60
60
90
ENDCHAR
STARTCHAR 0079
ENCODING 121
SWIDTH 1200 0
DWIDTH 6 0
BBX 4 4 1 0
BITMAP
90
F0
10
E0
ENDCHAR
STARTCHAR 007A
ENCODING 122
SWIDTH 1200 0
DWIDTH 6 0
BBX 4 4 1 0
BITMAP
F0
20
40
F0
ENDCHAR
STARTCHAR 007B
ENCODING 123
SWIDTH 1200 0
DWIDTH 6 0
BBX 4 5 0 0
BITMAP
30
20
C0
20
30
ENDCHAR
STARTCHAR 007C
ENCODING 124
SWIDTH 1200 0
DWIDTH 6 0
BBX 1 5 2 0
BITMAP
80
80
80
80
80
ENDCHAR
STARTCHAR 007D
ENCODING 125
SWIDTH 1200 0
DWIDTH 6 0
BBX 4 5 1 0
BITMAP
C0
40
30
40
C0
ENDCHAR
STARTCHAR 007E
ENCODING 126
SWIDTH 1200 0
DWIDTH 6 0
BBX 5 3 0 1
BITMAP
40
A8
10
ENDCHAR
STARTCHAR 00A1
ENCODING 161
SWIDTH 1200 0
DWIDTH 6 0
BBX 1 5 2 0
BITMAP
80
00
80
80
80
ENDCHAR
STARTCHAR 00A2
ENCODING 162
SWIDTH 1200 0
DWIDTH 6 0
BBX 4 5 0 0
BITMAP
20
70
A0
70
20
ENDCHAR
STARTCHAR 00A3
ENCODING 163
SWIDTH 1200 0
DWIDTH 6 0
BBX 4 5 1 0
BITMAP
20
40
E0
40
F0
ENDCHAR
STARTCHAR 00A4
ENCODING 164
SWIDTH 1200 0
DWIDTH 6 0
BBX 5 5 0 0
BITMAP
88
70
50
70
88
ENDCHAR
STARTCHAR 00A5
ENCODING 165
SWIDTH 1200 0
DWIDTH 6 0
BBX 5 5 0 0
BITMAP
88
50
20
70
20
ENDCHAR
STARTCHAR 00A6
ENCODING 166
SWIDTH 1200 0
DWIDTH 6 0
BBX 1 5 2 0
BITMAP
80
80
00
80
80
ENDCHAR
STARTCHAR 00A7
ENCODING 167
SWIDTH 1200 0
DWIDTH 6 0
BBX 3 5 1 0
BITMAP
60
C0
A0
60
C0
ENDCHAR
STARTCHAR 00A8
ENCODING 168
SWIDTH 1200 0
DWIDTH 6 0
BBX 3 1 1 4
BITMAP
A0
ENDCHAR
STARTCHAR 00A9
ENCODING 169
SWIDTH 1200 0
DWIDTH 6 0
BBX 5 5 0 0
BITMAP
70
B8
C8
B8
70
ENDCHAR
STARTCHAR 00AA
ENCODING 170
SWIDTH 1200 0
DWIDTH 6 0
BBX 4 3 1 2
BITMAP
C0
A0
F0
ENDCHAR
STARTCHAR 00AB
ENCODING 171
SWIDTH 1200 0
DWIDTH 6 0
BBX 5 3 0 1
BITMAP
48
90
48
ENDCHAR
STARTCHAR 00AC
ENCODING 172
SWIDTH 1200 0
DWIDTH 6 0
BBX 5 2 0 1
BITMAP
F8
08
ENDCHAR
STARTCHAR 00AD
ENCODING 173
SWIDTH 1200 0
DWIDTH 6 0
BBX 3 1 1 2
BITMAP
E0
ENDCHAR
STARTCHAR 00AE
ENCODING 174
SWIDTH 1200 0
DWIDTH 6 0
BBX 5 5 0 0
BITMAP
70
D8
E8
D8
70
ENDCHAR
STARTCHAR 00AF
ENCODING 175
SWIDTH 1200 0
DWIDTH 6 0
BBX 3 1 1 4
BITMAP
E0
ENDCHAR
STARTCHAR 00B0
ENCODING 176
SWIDTH 1200 0
DWIDTH 6 0
BBX 3 3 1 2
BITMAP
40
A0
40
ENDCHAR
STARTCHAR 00B1
ENCODING 177
SWIDTH 1200 0
DWIDTH 6 0
BBX 3 5 1 0
BITMAP
40
E0
40
00
E0
ENDCHAR
STARTCHAR 00B2
ENCODING 178
SWIDTH 1200 0
DWIDTH 6 0
BBX 3 3 1 2
BITMAP
C0
40
60
ENDCHAR
STARTCHAR 00B3
ENCODING 179
SWIDTH 1200 0
DWIDTH 6 0
BBX 3 3 1 2
BITMAP
C0
60
C0
ENDCHAR
STARTCHAR 00B4
ENCODING 180
SWIDTH 1200 0
DWIDTH 6 0
BBX 2 2 2 3
BITMAP
40
80
ENDCHAR
STARTCHAR 00B6
ENCODING 182
SWIDTH 1200 0
DWIDTH 6 0
BBX 5 5 0 0
BITMAP
78
E8
68
28
28
ENDCHAR
STARTCHAR 00B7
ENCODING 183
SWIDTH 1200 0
DWIDTH 6 0
BBX 1 1 2 2
BITMAP
80
ENDCHAR
STARTCHAR 00B8
ENCODING 184
SWIDTH 1200 0
DWIDTH 6 0
BBX 2 3 2 0
BITMAP
80
40
80
ENDCHAR
STARTCHAR 00B9
ENCODING 185
SWIDTH 1200 0
DWIDTH 6 0
BBX 3 3 1 2
BITMAP
C0
40
E0
ENDCHAR
STARTCHAR 00BA
ENCODING 186
SWIDTH 1200 0
DWIDTH 6 0
BBX 3 3 1 2
BITMAP
E0
A0
E0
ENDCHAR
STARTCHAR 00BB
ENCODING 187
SWIDTH 1200 0
DWIDTH 6 0
BBX 5 3 0 2
BITMAP
90
48
90
ENDCHAR
STARTCHAR 00BC
ENCODING 188
SWIDTH 1200 0
DWIDTH 6 0
BBX 5 5 0 0
BITMAP
88
90
28
58
88
ENDCHAR
STARTCHAR 00BD
ENCODING 189
SWIDTH 1200 0
DWIDTH 6 0
BBX 5 5 0 0
BITMAP
88
90
28
50
98
ENDCHAR
STARTCHAR 00BE
ENCODING 190
SWIDTH 1200 0
DWIDTH 6 0
BBX 5 5 0 0
BITMAP
C8
50
E8
58
88
ENDCHAR
STARTCHAR 00BF
ENCODING 191
SWIDTH 1200 0
DWIDTH 6 0
BBX 4 5 0 0
BITMAP
20
00
60
80
70
ENDCHAR
STARTCHAR 00C0
ENCODING 192
SWIDTH 1200 0
DWIDTH 6 0
BBX 3 5 1 0
BITMAP
40
20
40
E0
A0
ENDCHAR
STARTCHAR 00C1
ENCODING 193
SWIDTH 1200 0
DWIDTH 6 0
BBX 3 5 1 0
BITMAP
40
80
40
E0
A0
ENDCHAR
STARTCHAR 00C2
ENCODING 194
SWIDTH 1200 0
DWIDTH 6 0
BBX 5 5 0 0
BITMAP
70
88
20
70
50
ENDCHAR
STARTCHAR 00C3
ENCODING 195
SWIDTH 1200 0
DWIDTH 6 0
BBX 4 5 0 0
BITMAP
50
A0
20
70
50
ENDCHAR
STARTCHAR 00C4
ENCODING 196
SWIDTH 1200 0
DWIDTH 6 0
BBX 3 5 1 0
BITMAP
A0
00
40
E0
A0
ENDCHAR
STARTCHAR 00C5
ENCODING 197
SWIDTH 1200 0
DWIDTH 6 0
BBX 3 5 1 0
BITMAP
40
00
40
E0
A0
ENDCHAR
STARTCHAR 00C6
ENCODING 198
SWIDTH 1200 0
DWIDTH 6 0
BBX 5 5 0 0
BITMAP
58
B0
F8
B0
B8
ENDCHAR
STARTCHAR 00C7
ENCODING 199
SWIDTH 1200 0
DWIDTH 6 0
BBX 5 5 0 0
BITMAP
78
80
80
78
30
ENDCHAR
STARTCHAR 00C8
ENCODING 200
SWIDTH 1200 0
DWIDTH 6 0
BBX 5 5 0 0
BITMAP
40
F8
80
E0
F8
ENDCHAR
STARTCHAR 00C9
ENCODING 201
SWIDTH 1200 0
DWIDTH 6 0
BBX 5 5 0 0
BITMAP
10
F8
80
E0
F8
ENDCHAR
STARTCHAR 00CA
ENCODING 202
SWIDTH 1200 0
DWIDTH 6 0
BBX 5 5 0 0
BITMAP
70
F8
80
E0
F8
ENDCHAR
STARTCHAR 00CB
ENCODING 203
SWIDTH 1200 0
DWIDTH 6 0
BBX 5 5 0 0
BITMAP
50
F8
80
E0
F8
ENDCHAR
STARTCHAR 00CC
ENCODING 204
SWIDTH 1200 0
DWIDTH 6 0
BBX 5 5 0 0
BITMAP
40
F8
20
20
F8
ENDCHAR
STARTCHAR 00CD
ENCODING 205
SWIDTH 1200 0
DWIDTH 6 0
BBX 5 5 0 0
BITMAP
10
F8
20
20
F8
ENDCHAR
STARTCHAR 00CE
ENCODING 206
SWIDTH 1200 0
DWIDTH 6 0
BBX 5 5 0 0
BITMAP
70
F8
20
20
F8
ENDCHAR
STARTCHAR 00CF
ENCODING 207
SWIDTH 1200 0
DWIDTH 6 0
BBX 5 5 0 0
BITMAP
50
F8
20
20
F8
ENDCHAR
STARTCHAR 00D0
ENCODING 208
SWIDTH 1200 0
DWIDTH 6 0
BBX 5 5 0 0
BITMAP
70
48
E8
48
70
ENDCHAR
STARTCHAR 00D1
ENCODING 209
SWIDTH 1200 0
DWIDTH 6 0
BBX 5 5 0 0
BITMAP
50
A0
C8
A8
98
ENDCHAR
STARTCHAR 00D2
ENCODING 210
SWIDTH 1200 0
DWIDTH 6 0
BBX 5 5 0 0
BITMAP
40
20
F8
88
F8
ENDCHAR
STARTCHAR 00D3
ENCODING 211
SWIDTH 1200 0
DWIDTH 6 0
BBX 5 5 0 0
BITMAP
10
20
F8
88
F8
ENDCHAR
STARTCHAR 00D4
ENCODING 212
SWIDTH 1200 0
DWIDTH 6 0
BBX 5 5 0 0
BITMAP
20
50
F8
88
F8
ENDCHAR
STARTCHAR 00D5
ENCODING 213
SWIDTH 1200 0
DWIDTH 6 0
BBX 5 5 0 0
BITMAP
50
A0
F8
88
F8
ENDCHAR
STARTCHAR 00D6
ENCODING 214
SWIDTH 1200 0
DWIDTH 6 0
BBX 5 5 0 0
BITMAP
50
00
F8
88
F8
ENDCHAR
STARTCHAR 00D7
ENCODING 215
SWIDTH 1200 0
DWIDTH 6 0
BBX 3 3 1 1
BITMAP
A0
40
A0
ENDCHAR
STARTCHAR 00D8
ENCODING 216
SWIDTH 1200 0
DWIDTH 6 0
BBX 5 5 0 0
BITMAP
78
98
A8
C8
F0
ENDCHAR
STARTCHAR 00D9
ENCODING 217
SWIDTH 1200 0
DWIDTH 6 0
BBX 5 5 0 0
BITMAP
40
20
88
88
70
ENDCHAR
STARTCHAR 00DA
ENCODING 218
SWIDTH 1200 0
DWIDTH 6 0
BBX 5 5 0 0
BITMAP
10
20
88
88
70
ENDCHAR
STARTCHAR 00DB
ENCODING 219
SWIDTH 1200 0
DWIDTH 6 0
BBX 5 5 0 0
BITMAP
20
50
88
88
70
ENDCHAR
STARTCHAR 00DC
ENCODING 220
SWIDTH 1200 0
DWIDTH 6 0
BBX 5 5 0 0
BITMAP
50
00
88
88
70
ENDCHAR
STARTCHAR 00DD
ENCODING 221
SWIDTH 1200 0
DWIDTH 6 0
BBX 5 5 0 0
BITMAP
10
A8
78
08
70
ENDCHAR
STARTCHAR 00DE
ENCODING 222
SWIDTH 1200 0
DWIDTH 6 0
BBX 4 5 1 0
BITMAP
80
E0
90
E0
80
ENDCHAR
STARTCHAR 00DF
ENCODING 223
SWIDTH 1200 0
DWIDTH 6 0
BBX 5 5 0 0
BITMAP
60
90
B0
88
B0
ENDCHAR
STARTCHAR 00E0
ENCODING 224
SWIDTH 1200 0
DWIDTH 6 0
BBX 4 5 1 0
BITMAP
80
40
60
A0
F0
ENDCHAR
STARTCHAR 00E1
ENCODING 225
SWIDTH 1200 0
DWIDTH 6 0
BBX 4 5 1 0
BITMAP
20
40
60
A0
F0
ENDCHAR
STARTCHAR 00E2
ENCODING 226
SWIDTH 1200 0
DWIDTH 6 0
BBX 4 5 1 0
BITMAP
60
90
60
A0
F0
ENDCHAR
STARTCHAR 00E3
ENCODING 227
SWIDTH 1200 0
DWIDTH 6 0
BBX 5 5 0 0
BITMAP
50
A0
30
50
78
ENDCHAR
STARTCHAR 00E4
ENCODING 228
SWIDTH 1200 0
DWIDTH 6 0
BBX 4 5 1 0
BITMAP
A0
00
60
A0
F0
ENDCHAR
STARTCHAR 00E5
ENCODING 229
SWIDTH 1200 0
DWIDTH 6 0
BBX 4 5 1 0
BITMAP
40
00
60
A0
F0
ENDCHAR
STARTCHAR 00E6
ENCODING 230
SWIDTH 1200 0
DWIDTH 6 0
BBX 5 5 0 0
BITMAP
C0
30
68
B0
F8
ENDCHAR
STARTCHAR 00E7
ENCODING 231
SWIDTH 1200 0
DWIDTH 6 0
BBX 3 4 1 0
BITMAP
60
80
60
40
ENDCHAR
STARTCHAR 00E8
ENCODING 232
SWIDTH 1200 0
DWIDTH 6 0
BBX 4 5 1 0
BITMAP
80
60
90
A0
70
ENDCHAR
STARTCHAR 00E9
ENCODING 233
SWIDTH 1200 0
DWIDTH 6 0
BBX 4 5 1 0
BITMAP
10
60
90
A0
70
ENDCHAR
STARTCHAR 00EA
ENCODING 234
SWIDTH 1200 0
DWIDTH 6 0
BBX 5 5 0 0
BITMAP
70
A8
58
50
38
ENDCHAR
STARTCHAR 00EB
ENCODING 235
SWIDTH 1200 0
DWIDTH 6 0
BBX 4 5 1 0
BITMAP
A0
60
90
A0
70
ENDCHAR
STARTCHAR 00EC
ENCODING 236
SWIDTH 1200 0
DWIDTH 6 0
BBX 2 5 1 0
BITMAP
80
40
00
40
40
ENDCHAR
STARTCHAR 00ED
ENCODING 237
SWIDTH 1200 0
DWIDTH 6 0
BBX 2 5 2 0
BITMAP
40
80
00
80
80
ENDCHAR
STARTCHAR 00EE
ENCODING 238
SWIDTH 1200 0
DWIDTH 6 0
BBX 3 5 1 0
BITMAP
40
A0
00
40
40
ENDCHAR
STARTCHAR 00EF
ENCODING 239
SWIDTH 1200 0
DWIDTH 6 0
BBX 3 4 1 0
BITMAP
A0
00
40
40
ENDCHAR
STARTCHAR 00F0
ENCODING 240
SWIDTH 1200 0
DWIDTH 6 0
BBX 5 5 0 0
BITMAP
C0
30
50
48
30
ENDCHAR
STARTCHAR 00F1
ENCODING 241
SWIDTH 1200 0
DWIDTH 6 0
BBX 4 5 1 0
BITMAP
50
A0
00
E0
90
ENDCHAR
STARTCHAR 00F2
ENCODING 242
SWIDTH 1200 0
DWIDTH 6 0
BBX 3 5 1 0
BITMAP
40
20
E0
A0
E0
ENDCHAR
STARTCHAR 00F3
ENCODING 243
SWIDTH 1200 0
DWIDTH 6 0
BBX 4 5 1 0
BITMAP
10
20
E0
A0
E0
ENDCHAR
STARTCHAR 00F4
ENCODING 244
SWIDTH 1200 0
DWIDTH 6 0
BBX 4 5 1 0
BITMAP
60
90
E0
A0
E0
ENDCHAR
STARTCHAR 00F5
ENCODING 245
SWIDTH 1200 0
DWIDTH 6 0
BBX 4 5 1 0
BITMAP
50
A0
E0
A0
E0
ENDCHAR
STARTCHAR 00F6
ENCODING 246
SWIDTH 1200 0
DWIDTH 6 0
BBX 3 5 1 0
BITMAP
A0
00
E0
A0
E0
ENDCHAR
STARTCHAR 00F7
ENCODING 247
SWIDTH 1200 0
DWIDTH 6 0
BBX 3 5 1 0
BITMAP
40
00
E0
00
40
ENDCHAR
STARTCHAR 00F8
ENCODING 248
SWIDTH 1200 0
DWIDTH 6 0
BBX 5 3 0 0
BITMAP
78
50
F0
ENDCHAR
STARTCHAR 00F9
ENCODING 249
SWIDTH 1200 0
DWIDTH 6 0
BBX 3 5 1 0
BITMAP
80
40
00
A0
60
ENDCHAR
STARTCHAR 00FA
ENCODING 250
SWIDTH 1200 0
DWIDTH 6 0
BBX 3 5 1 0
BITMAP
20
40
00
A0
60
ENDCHAR
STARTCHAR 00FB
ENCODING 251
SWIDTH 1200 0
DWIDTH 6 0
BBX 3 5 1 0
BITMAP
40
A0
00
A0
60
ENDCHAR
STARTCHAR 00FC
ENCODING 252
SWIDTH 1200 0
DWIDTH 6 0
BBX 3 4 1 0
BITMAP
A0
00
A0
60
ENDCHAR
STARTCHAR 00FD
ENCODING 253
SWIDTH 1200 0
DWIDTH 6 0
BBX 4 5 1 0
BITMAP
10
20
F0
10
E0
ENDCHAR
STARTCHAR 00FE
ENCODING 254
SWIDTH 1200 0
DWIDTH 6 0
BBX 3 5 1 0
BITMAP
80
C0
A0
C0
80
ENDCHAR
STARTCHAR 00FF
ENCODING 255
SWIDTH 1200 0
DWIDTH 6 0
BBX 4 5 1 0
BITMAP
50
00
F0
10
E0
ENDCHAR
STARTCHAR 0131
ENCODING 305
SWIDTH 1200 0
DWIDTH 6 0
BBX 2 3 2 0
BITMAP
80
80
C0
ENDCHAR
STARTCHAR 0141
ENCODING 321
SWIDTH 1200 0
DWIDTH 6 0
BBX 5 5 0 0
BITMAP
40
60
C0
40
78
ENDCHAR
STARTCHAR 0142
ENCODING 322
SWIDTH 1200 0
DWIDTH 6 0
BBX 4 5 1 0
BITMAP
40
60
C0
40
30
ENDCHAR
STARTCHAR 0152
ENCODING 338
SWIDTH 1200 0
DWIDTH 6 0
BBX 5 5 0 0
BITMAP
58
B0
B8
B0
58
ENDCHAR
STARTCHAR 0153
ENCODING 339
SWIDTH 1200 0
DWIDTH 6 0
BBX 5 4 0 0
BITMAP
70
A8
B0
78
ENDCHAR
STARTCHAR 0160
ENCODING 352
SWIDTH 1200 0
DWIDTH 6 0
BBX 5 5 0 0
BITMAP
70
78
80
78
F0
ENDCHAR
STARTCHAR 0161
ENCODING 353
SWIDTH 1200 0
DWIDTH 6 0
BBX 4 5 1 0
BITMAP
A0
70
C0
30
E0
ENDCHAR
STARTCHAR 0178
ENCODING 376
SWIDTH 1200 0
DWIDTH 6 0
BBX 5 5 0 0
BITMAP
50
88
78
08
70
ENDCHAR
STARTCHAR 017D
ENCODING 381
SWIDTH 1200 0
DWIDTH 6 0
BBX 5 5 0 0
BITMAP
70
F8
10
60
F8
ENDCHAR
STARTCHAR 017E
ENCODING 382
SWIDTH 1200 0
DWIDTH 6 0
BBX 4 5 0 0
BITMAP
40
A0
F0
40
F0
ENDCHAR
STARTCHAR 0192
ENCODING 402
SWIDTH 1200 0
DWIDTH 6 0
BBX 3 5 1 0
BITMAP
20
40
E0
40
80
ENDCHAR
STARTCHAR 02C6
ENCODING 710
SWIDTH 1200 0
DWIDTH 6 0
BBX 4 2 1 3
BITMAP
60
90
ENDCHAR
STARTCHAR 02C7
ENCODING 711
SWIDTH 1200 0
DWIDTH 6 0
BBX 3 2 1 3
BITMAP
A0
40
ENDCHAR
STARTCHAR 02D8
ENCODING 728
SWIDTH 1200 0
DWIDTH 6 0
BBX 4 2 1 3
BITMAP
90
60
ENDCHAR
STARTCHAR 02D9
ENCODING 729
SWIDTH 1200 0
DWIDTH 6 0
BBX 1 1 2 4
BITMAP
80
ENDCHAR
STARTCHAR 02DA
ENCODING 730
SWIDTH 1200 0
DWIDTH 6 0
BBX 4 3 1 2
BITMAP
60
90
60
ENDCHAR
STARTCHAR 02DB
ENCODING 731
SWIDTH 1200 0
DWIDTH 6 0
BBX 2 2 2 0
BITMAP
80
C0
ENDCHAR
STARTCHAR 02DC
ENCODING 732
SWIDTH 1200 0
DWIDTH 6 0
BBX 4 2 0 3
BITMAP
50
A0
ENDCHAR
STARTCHAR 02DD
ENCODING 733
SWIDTH 1200 0
DWIDTH 6 0
BBX 5 2 0 3
BITMAP
48
90
ENDCHAR
STARTCHAR 0391
ENCODING 913
SWIDTH 1200 0
DWIDTH 6 0
BBX 5 5 0 0
BITMAP
20
50
70
90
98
ENDCHAR
STARTCHAR 0392
ENCODING 914
SWIDTH 1200 0
DWIDTH 6 0
BBX 5 5 0 0
BITMAP
C0
A0
E0
90
F8
ENDCHAR
STARTCHAR 0393
ENCODING 915
SWIDTH 1200 0
DWIDTH 6 0
BBX 4 5 1 0
BITMAP
F0
80
80
80
80
ENDCHAR
STARTCHAR 0394
ENCODING 916
SWIDTH 1200 0
DWIDTH 6 0
BBX 5 5 0 0
BITMAP
20
50
50
88
F8
ENDCHAR
STARTCHAR 0395
ENCODING 917
SWIDTH 1200 0
DWIDTH 6 0
BBX 5 5 0 0
BITMAP
F0
80
E0
80
F8
ENDCHAR
STARTCHAR 0396
ENCODING 918
SWIDTH 1200 0
DWIDTH 6 0
BBX 4 5 1 0
BITMAP
E0
20
40
80
F0
ENDCHAR
STARTCHAR 0397
ENCODING 919
SWIDTH 1200 0
DWIDTH 6 0
BBX 5 5 0 0
BITMAP
90
90
F0
90
98
ENDCHAR
STARTCHAR 0398
ENCODING 920
SWIDTH 1200 0
DWIDTH 6 0
BBX 5 5 0 0
BITMAP
70
88
A8
88
70
ENDCHAR
STARTCHAR 0399
ENCODING 921
SWIDTH 1200 0
DWIDTH 6 0
BBX 4 5 1 0
BITMAP
E0
40
40
40
F0
ENDCHAR
STARTCHAR 039A
ENCODING 922
SWIDTH 1200 0
DWIDTH 6 0
BBX 5 5 0 0
BITMAP
A0
C0
C0
A0
98
ENDCHAR
STARTCHAR 039B
ENCODING 923
SWIDTH 1200 0
DWIDTH 6 0
BBX 5 5 0 0
BITMAP
20
50
50
88
88
ENDCHAR
STARTCHAR 039C
ENCODING 924
SWIDTH 1200 0
DWIDTH 6 0
BBX 5 5 0 0
BITMAP
90
B0
D0
90
98
ENDCHAR
STARTCHAR 039D
ENCODING 925
SWIDTH 1200 0
DWIDTH 6 0
BBX 5 5 0 0
BITMAP
90
D0
B0
90
98
ENDCHAR
STARTCHAR 039E
ENCODING 926
SWIDTH 1200 0
DWIDTH 6 0
BBX 5 5 0 0
BITMAP
F8
00
70
00
F8
ENDCHAR
STARTCHAR 039F
ENCODING 927
SWIDTH 1200 0
DWIDTH 6 0
BBX 5 5 0 0
BITMAP
60
98
90
90
60
ENDCHAR
STARTCHAR 03A0
ENCODING 928
SWIDTH 1200 0
DWIDTH 6 0
BBX 5 5 0 0
BITMAP
F8
88
88
88
88
ENDCHAR
STARTCHAR 03A1
ENCODING 929
SWIDTH 1200 0
DWIDTH 6 0
BBX 5 5 0 0
BITMAP
F0
88
F0
80
C0
ENDCHAR
STARTCHAR 03A3
ENCODING 931
SWIDTH 1200 0
DWIDTH 6 0
BBX 5 5 0 0
BITMAP
F8
40
20
40
F8
ENDCHAR
STARTCHAR 03A4
ENCODING 932
SWIDTH 1200 0
DWIDTH 6 0
BBX 5 5 0 0
BITMAP
F8
20
20
20
30
ENDCHAR
STARTCHAR 03A5
ENCODING 933
SWIDTH 1200 0
DWIDTH 6 0
BBX 5 5 0 0
BITMAP
88
50
50
20
30
ENDCHAR
STARTCHAR 03A6
ENCODING 934
SWIDTH 1200 0
DWIDTH 6 0
BBX 5 5 0 0
BITMAP
20
70
A8
70
20
ENDCHAR
STARTCHAR 03A7
ENCODING 935
SWIDTH 1200 0
DWIDTH 6 0
BBX 5 5 0 0
BITMAP
88
50
20
50
98
ENDCHAR
STARTCHAR 03A8
ENCODING 936
SWIDTH 1200 0
DWIDTH 6 0
BBX 5 5 0 0
BITMAP
A8
A8
70
20
20
ENDCHAR
STARTCHAR 03A9
ENCODING 937
SWIDTH 1200 0
DWIDTH 6 0
BBX 5 5 0 0
BITMAP
70
88
88
50
D8
ENDCHAR
STARTCHAR 03B1
ENCODING 945
SWIDTH 1200 0
DWIDTH 6 0
BBX 5 4 0 0
BITMAP
68
90
90
68
ENDCHAR
STARTCHAR 03B2
ENCODING 946
SWIDTH 1200 0
DWIDTH 6 0
BBX 4 5 1 0
BITMAP
60
90
A0
D0
A0
ENDCHAR
STARTCHAR 03B3
ENCODING 947
SWIDTH 1200 0
DWIDTH 6 0
BBX 5 5 0 0
BITMAP
88
50
50
20
30
ENDCHAR
STARTCHAR 03B4
ENCODING 948
SWIDTH 1200 0
DWIDTH 6 0
BBX 4 5 1 0
BITMAP
F0
40
20
50
20
ENDCHAR
STARTCHAR 03B5
ENCODING 949
SWIDTH 1200 0
DWIDTH 6 0
BBX 4 5 1 0
BITMAP
60
90
40
90
60
ENDCHAR
STARTCHAR 03B6
ENCODING 950
SWIDTH 1200 0
DWIDTH 6 0
BBX 4 5 1 0
BITMAP
F0
20
40
70
10
ENDCHAR
STARTCHAR 03B7
ENCODING 951
SWIDTH 1200 0
DWIDTH 6 0
BBX 4 5 1 0
BITMAP
80
E0
90
90
10
ENDCHAR
STARTCHAR 03B8
ENCODING 952
SWIDTH 1200 0
DWIDTH 6 0
BBX 4 5 1 0
BITMAP
60
90
F0
90
60
ENDCHAR
STARTCHAR 03B9
ENCODING 953
SWIDTH 1200 0
DWIDTH 6 0
BBX 2 4 2 0
BITMAP
80
80
80
40
ENDCHAR
STARTCHAR 03BA
ENCODING 954
SWIDTH 1200 0
DWIDTH 6 0
BBX 4 4 1 0
BITMAP
90
A0
C0
B0
ENDCHAR
STARTCHAR 03BB
ENCODING 955
SWIDTH 1200 0
DWIDTH 6 0
BBX 5 5 0 0
BITMAP
C0
20
20
50
98
ENDCHAR
STARTCHAR 03BC
ENCODING 956
SWIDTH 1200 0
DWIDTH 6 0
BBX 5 4 0 0
BITMAP
90
D0
B0
88
ENDCHAR
STARTCHAR 03BD
ENCODING 957
SWIDTH 1200 0
DWIDTH 6 0
BBX 5 4 0 0
BITMAP
90
48
28
10
ENDCHAR
STARTCHAR 03BE
ENCODING 958
SWIDTH 1200 0
DWIDTH 6 0
BBX 4 5 1 0
BITMAP
E0
40
20
40
30
ENDCHAR
STARTCHAR 03BF
ENCODING 959
SWIDTH 1200 0
DWIDTH 6 0
BBX 5 4 0 0
BITMAP
60
98
90
60
ENDCHAR
STARTCHAR 03C0
ENCODING 960
SWIDTH 1200 0
DWIDTH 6 0
BBX 5 4 0 0
BITMAP
F8
50
50
58
ENDCHAR
STARTCHAR 03C1
ENCODING 961
SWIDTH 1200 0
DWIDTH 6 0
BBX 4 4 1 0
BITMAP
60
D0
A0
80
ENDCHAR
STARTCHAR 03C3
ENCODING 963
SWIDTH 1200 0
DWIDTH 6 0
BBX 5 5 0 0
BITMAP
08
78
90
90
60
ENDCHAR
STARTCHAR 03C4
ENCODING 964
SWIDTH 1200 0
DWIDTH 6 0
BBX 3 4 1 0
BITMAP
E0
40
40
60
ENDCHAR
STARTCHAR 03C5
ENCODING 965
SWIDTH 1200 0
DWIDTH 6 0
BBX 5 4 0 0
BITMAP
90
48
48
70
ENDCHAR
STARTCHAR 03C6
ENCODING 966
SWIDTH 1200 0
DWIDTH 6 0
BBX 5 4 0 0
BITMAP
B0
A8
70
20
ENDCHAR
STARTCHAR 03C7
ENCODING 967
SWIDTH 1200 0
DWIDTH 6 0
BBX 5 4 0 0
BITMAP
D0
20
20
58
ENDCHAR
STARTCHAR 03C8
ENCODING 968
SWIDTH 1200 0
DWIDTH 6 0
BBX 5 5 0 0
BITMAP
20
A8
70
20
20
ENDCHAR
STARTCHAR 03C9
ENCODING 969
SWIDTH 1200 0
DWIDTH 6 0
BBX 5 4 0 0
BITMAP
50
88
A8
50
ENDCHAR
STARTCHAR 2013
ENCODING 8211
SWIDTH 1200 0
DWIDTH 6 0
BBX 5 1 0 2
BITMAP
F8
ENDCHAR
STARTCHAR 2014
ENCODING 8212
SWIDTH 1200 0
DWIDTH 6 0
BBX 6 1 0 2
BITMAP
FC
ENDCHAR
STARTCHAR 2018
ENCODING 8216
SWIDTH 1200 0
DWIDTH 6 0
BBX 2 2 2 3
BITMAP
80
C0
ENDCHAR
STARTCHAR 2019
ENCODING 8217
SWIDTH 1200 0
DWIDTH 6 0
BBX 2 2 2 3
BITMAP
C0
40
ENDCHAR
STARTCHAR 201A
ENCODING 8218
SWIDTH 1200 0
DWIDTH 6 0
BBX 2 2 2 0
BITMAP
C0
40
ENDCHAR
STARTCHAR 201C
ENCODING 8220
SWIDTH 1200 0
DWIDTH 6 0
BBX 5 2 0 3
BITMAP
90
D8
ENDCHAR
STARTCHAR 201D
ENCODING 8221
SWIDTH 1200 0
DWIDTH 6 0
BBX 5 2 0 3
BITMAP
D8
48
ENDCHAR
STARTCHAR 201E
ENCODING 8222
SWIDTH 1200 0
DWIDTH 6 0
BBX 5 2 0 0
BITMAP
D8
48
ENDCHAR
STARTCHAR 2020
ENCODING 8224
SWIDTH 1200 0
DWIDTH 6 0
BBX 3 5 1 0
BITMAP
40
E0
40
40
40
ENDCHAR
STARTCHAR 2021
ENCODING 8225
SWIDTH 1200 0
DWIDTH 6 0
BBX 3 5 1 0
BITMAP
40
E0
40
E0
40
ENDCHAR
STARTCHAR 2022
ENCODING 8226
SWIDTH 1200 0
DWIDTH 6 0
BBX 4 4 1 1
BITMAP
60
F0
F0
60
ENDCHAR
STARTCHAR 2026
ENCODING 8230
SWIDTH 1200 0
DWIDTH 6 0
BBX 5 1 0 0
BITMAP
A8
ENDCHAR
STARTCHAR 2030
ENCODING 8240
SWIDTH 1200 0
DWIDTH 6 0
BBX 5 5 0 0
BITMAP
80
20
40
80
28
ENDCHAR
STARTCHAR 2039
ENCODING 8249
SWIDTH 1200 0
DWIDTH 6 0
BBX 2 3 1 1
BITMAP
40
80
40
ENDCHAR
STARTCHAR 203A
ENCODING 8250
SWIDTH 1200 0
DWIDTH 6 0
BBX 2 3 2 1
BITMAP
80
40
80
ENDCHAR
STARTCHAR 203C
ENCODING 8252
SWIDTH 1200 0
DWIDTH 6 0
BBX 3 5 1 0
BITMAP
A0
A0
A0
00
A0
ENDCHAR
STARTCHAR 203D
ENCODING 8253
SWIDTH 1200 0
DWIDTH 6 0
BBX 4 5 1 0
BITMAP
E0
50
60
00
40
ENDCHAR
STARTCHAR 2042
ENCODING 8258
SWIDTH 1200 0
DWIDTH 6 0
BBX 5 5 0 0
BITMAP
20
50
A8
50
A8
ENDCHAR
STARTCHAR 2044
ENCODING 8260
SWIDTH 1200 0
DWIDTH 6 0
BBX 5 5 0 0
BITMAP
08
10
20
40
80
ENDCHAR
STARTCHAR 2048
ENCODING 8264
SWIDTH 1200 0
DWIDTH 6 0
BBX 5 5 0 0
BITMAP
C8
28
C8
00
88
ENDCHAR
STARTCHAR 2049
ENCODING 8265
SWIDTH 1200 0
DWIDTH 6 0
BBX 5 5 0 0
BITMAP
B0
88
B0
00
A0
ENDCHAR
STARTCHAR 20AC
ENCODING 8364
SWIDTH 1200 0
DWIDTH 6 0
BBX 5 5 0 0
BITMAP
38
40
F0
40
38
ENDCHAR
STARTCHAR 2120
ENCODING 8480
SWIDTH 1200 0
DWIDTH 6 0
BBX 5 2 0 3
BITMAP
78
D8
ENDCHAR
STARTCHAR 2122
ENCODING 8482
SWIDTH 1200 0
DWIDTH 6 0
BBX 5 2 0 3
BITMAP
F8
58
ENDCHAR
STARTCHAR 2190
ENCODING 8592
SWIDTH 1200 0
DWIDTH 6 0
BBX 5 5 0 0
BITMAP
20
60
F8
60
20
ENDCHAR
STARTCHAR 2191
ENCODING 8593
SWIDTH 1200 0
DWIDTH 6 0
BBX 5 5 0 0
BITMAP
20
70
F8
20
20
ENDCHAR
STARTCHAR 2192
ENCODING 8594
SWIDTH 1200 0
DWIDTH 6 0
BBX 5 5 0 0
BITMAP
20
30
F8
30
20
ENDCHAR
STARTCHAR 2193
ENCODING 8595
SWIDTH 1200 0
DWIDTH 6 0
BBX 5 5 0 0
BITMAP
20
20
F8
70
20
ENDCHAR
STARTCHAR 2196
ENCODING 8598
SWIDTH 1200 0
DWIDTH 6 0
BBX 5 5 0 0
BITMAP
E0
C0
A0
10
08
ENDCHAR
STARTCHAR 2197
ENCODING 8599
SWIDTH 1200 0
DWIDTH 6 0
BBX 5 5 0 0
BITMAP
38
18
28
40
80
ENDCHAR
STARTCHAR 2198
ENCODING 8600
SWIDTH 1200 0
DWIDTH 6 0
BBX 5 5 0 0
BITMAP
80
40
28
18
38
ENDCHAR
STARTCHAR 2199
ENCODING 8601
SWIDTH 1200 0
DWIDTH 6 0
BBX 5 5 0 0
BITMAP
08
10
A0
C0
E0
ENDCHAR
STARTCHAR 21A9
ENCODING 8617
SWIDTH 1200 0
DWIDTH 6 0
BBX 5 5 0 0
BITMAP
30
08
48
F0
40
ENDCHAR
STARTCHAR 21AA
ENCODING 8618
SWIDTH 1200 0
DWIDTH 6 0
BBX 5 5 0 0
BITMAP
60
80
90
78
10
ENDCHAR
STARTCHAR 21B5
ENCODING 8629
SWIDTH 1200 0
DWIDTH 6 0
BBX 4 4 0 1
BITMAP
10
50
F0
40
ENDCHAR
STARTCHAR 21BA
ENCODING 8634
SWIDTH 1200 0
DWIDTH 6 0
BBX 5 5 0 0
BITMAP
38
B0
A8
88
70
ENDCHAR
STARTCHAR 21BB
ENCODING 8635
SWIDTH 1200 0
DWIDTH 6 0
BBX 5 5 0 0
BITMAP
E0
68
A8
88
70
ENDCHAR
STARTCHAR 2202
ENCODING 8706
SWIDTH 1200 0
DWIDTH 6 0
BBX 4 5 0 0
BITMAP
60
10
60
A0
40
ENDCHAR
STARTCHAR 2205
ENCODING 8709
SWIDTH 1200 0
DWIDTH 6 0
BBX 4 4 0 0
BITMAP
70
B0
D0
E0
ENDCHAR
STARTCHAR 220F
ENCODING 8719
SWIDTH 1200 0
DWIDTH 6 0
BBX 5 5 0 0
BITMAP
F8
50
50
50
50
ENDCHAR
STARTCHAR 2211
ENCODING 8721
SWIDTH 1200 0
DWIDTH 6 0
BBX 5 5 0 0
BITMAP
F8
40
20
40
F8
ENDCHAR
STARTCHAR 2212
ENCODING 8722
SWIDTH 1200 0
DWIDTH 6 0
BBX 5 1 0 2
BITMAP
F8
ENDCHAR
STARTCHAR 2219
ENCODING 8729
SWIDTH 1200 0
DWIDTH 6 0
BBX 2 2 2 1
BITMAP
C0
C0
ENDCHAR
STARTCHAR 221A
ENCODING 8730
SWIDTH 1200 0
DWIDTH 6 0
BBX 5 5 0 0
BITMAP
08
08
90
50
20
ENDCHAR
STARTCHAR 221E
ENCODING 8734
SWIDTH 1200 0
DWIDTH 6 0
BBX 5 3 0 1
BITMAP
50
A8
50
ENDCHAR
STARTCHAR 222B
ENCODING 8747
SWIDTH 1200 0
DWIDTH 6 0
BBX 5 5 0 0
BITMAP
10
28
20
A0
40
ENDCHAR
STARTCHAR 2248
ENCODING 8776
SWIDTH 1200 0
DWIDTH 6 0
BBX 5 4 0 1
BITMAP
68
90
68
90
ENDCHAR
STARTCHAR 2260
ENCODING 8800
SWIDTH 1200 0
DWIDTH 6 0
BBX 3 5 1 0
BITMAP
20
E0
40
E0
80
ENDCHAR
STARTCHAR 2264
ENCODING 8804
SWIDTH 1200 0
DWIDTH 6 0
BBX 2 5 2 0
BITMAP
40
80
40
00
C0
ENDCHAR
STARTCHAR 2265
ENCODING 8805
SWIDTH 1200 0
DWIDTH 6 0
BBX 2 5 2 0
BITMAP
80
40
80
00
C0
ENDCHAR
STARTCHAR 2388
ENCODING 9096
SWIDTH 1200 0
DWIDTH 6 0
BBX 5 5 0 0
BITMAP
A8
70
D8
70
A8
ENDCHAR
STARTCHAR 238B
ENCODING 9099
SWIDTH 1200 0
DWIDTH 6 0
BBX 5 5 0 0
BITMAP
E0
C8
A8
08
70
ENDCHAR
STARTCHAR 23CE
ENCODING 9166
SWIDTH 1200 0
DWIDTH 6 0
BBX 5 5 0 0
BITMAP
08
08
48
F0
40
ENDCHAR
STARTCHAR 23CF
ENCODING 9167
SWIDTH 1200 0
DWIDTH 6 0
BBX 5 5 0 0
BITMAP
20
70
F8
00
F8
ENDCHAR
STARTCHAR 2400
ENCODING 9216
SWIDTH 1200 0
DWIDTH 6 0
BBX 5 3 0 1
BITMAP
C8
A8
B8
ENDCHAR
STARTCHAR 2401
ENCODING 9217
SWIDTH 1200 0
DWIDTH 6 0
BBX 5 3 0 1
BITMAP
70
58
D8
ENDCHAR
STARTCHAR 2402
ENCODING 9218
SWIDTH 1200 0
DWIDTH 6 0
BBX 5 3 0 1
BITMAP
78
50
D0
ENDCHAR
STARTCHAR 2403
ENCODING 9219
SWIDTH 1200 0
DWIDTH 6 0
BBX 5 3 0 1
BITMAP
E8
D0
E8
ENDCHAR
STARTCHAR 2404
ENCODING 9220
SWIDTH 1200 0
DWIDTH 6 0
BBX 5 3 0 1
BITMAP
F8
D0
D0
ENDCHAR
STARTCHAR 2405
ENCODING 9221
SWIDTH 1200 0
DWIDTH 6 0
BBX 5 3 0 1
BITMAP
D8
F8
C8
ENDCHAR
STARTCHAR 2406
ENCODING 9222
SWIDTH 1200 0
DWIDTH 6 0
BBX 5 3 0 1
BITMAP
68
F0
A8
ENDCHAR
STARTCHAR 2407
ENCODING 9223
SWIDTH 1200 0
DWIDTH 6 0
BBX 5 3 0 1
BITMAP
98
D0
C8
ENDCHAR
STARTCHAR 2408
ENCODING 9224
SWIDTH 1200 0
DWIDTH 6 0
BBX 5 3 0 1
BITMAP
98
D0
F0
ENDCHAR
STARTCHAR 2409
ENCODING 9225
SWIDTH 1200 0
DWIDTH 6 0
BBX 5 3 0 1
BITMAP
B8
E8
A8
ENDCHAR
STARTCHAR 240A
ENCODING 9226
SWIDTH 1200 0
DWIDTH 6 0
BBX 5 3 0 1
BITMAP
98
98
D0
ENDCHAR
STARTCHAR 240B
ENCODING 9227
SWIDTH 1200 0
DWIDTH 6 0
BBX 5 3 0 1
BITMAP
B8
A8
48
ENDCHAR
STARTCHAR 240C
ENCODING 9228
SWIDTH 1200 0
DWIDTH 6 0
BBX 5 3 0 1
BITMAP
D8
D8
90
ENDCHAR
STARTCHAR 240D
ENCODING 9229
SWIDTH 1200 0
DWIDTH 6 0
BBX 5 3 0 1
BITMAP
D8
90
D0
ENDCHAR
STARTCHAR 240E
ENCODING 9230
SWIDTH 1200 0
DWIDTH 6 0
BBX 5 3 0 1
BITMAP
78
58
D8
ENDCHAR
STARTCHAR 240F
ENCODING 9231
SWIDTH 1200 0
DWIDTH 6 0
BBX 5 3 0 1
BITMAP
68
48
C8
ENDCHAR
STARTCHAR 2410
ENCODING 9232
SWIDTH 1200 0
DWIDTH 6 0
BBX 5 3 0 1
BITMAP
50
D0
D8
ENDCHAR
STARTCHAR 2411
ENCODING 9233
SWIDTH 1200 0
DWIDTH 6 0
BBX 5 3 0 1
BITMAP
68
C8
E8
ENDCHAR
STARTCHAR 2412
ENCODING 9234
SWIDTH 1200 0
DWIDTH 6 0
BBX 5 3 0 1
BITMAP
70
D0
D8
ENDCHAR
STARTCHAR 2413
ENCODING 9235
SWIDTH 1200 0
DWIDTH 6 0
BBX 5 3 0 1
BITMAP
58
C8
D8
ENDCHAR
STARTCHAR 2414
ENCODING 9236
SWIDTH 1200 0
DWIDTH 6 0
BBX 5 3 0 1
BITMAP
68
D8
C8
ENDCHAR
STARTCHAR 2415
ENCODING 9237
SWIDTH 1200 0
DWIDTH 6 0
BBX 5 3 0 1
BITMAP
E8
B0
A8
ENDCHAR
STARTCHAR 2416
ENCODING 9238
SWIDTH 1200 0
DWIDTH 6 0
BBX 5 3 0 1
BITMAP
68
58
C8
ENDCHAR
STARTCHAR 2417
ENCODING 9239
SWIDTH 1200 0
DWIDTH 6 0
BBX 5 3 0 1
BITMAP
F0
D8
D8
ENDCHAR
STARTCHAR 2418
ENCODING 9240
SWIDTH 1200 0
DWIDTH 6 0
BBX 5 3 0 1
BITMAP
F8
B8
E8
ENDCHAR
STARTCHAR 2419
ENCODING 9241
SWIDTH 1200 0
DWIDTH 6 0
BBX 5 3 0 1
BITMAP
F8
F8
E8
ENDCHAR
STARTCHAR 241A
ENCODING 9242
SWIDTH 1200 0
DWIDTH 6 0
BBX 5 3 0 1
BITMAP
68
48
D0
ENDCHAR
STARTCHAR 241B
ENCODING 9243
SWIDTH 1200 0
DWIDTH 6 0
BBX 5 3 0 1
BITMAP
D8
D0
E8
ENDCHAR
STARTCHAR 241C
ENCODING 9244
SWIDTH 1200 0
DWIDTH 6 0
BBX 5 3 0 1
BITMAP
D8
D0
B0
ENDCHAR
STARTCHAR 241D
ENCODING 9245
SWIDTH 1200 0
DWIDTH 6 0
BBX 5 3 0 1
BITMAP
D8
50
F0
ENDCHAR
STARTCHAR 241E
ENCODING 9246
SWIDTH 1200 0
DWIDTH 6 0
BBX 5 3 0 1
BITMAP
D8
90
B0
ENDCHAR
STARTCHAR 241F
ENCODING 9247
SWIDTH 1200 0
DWIDTH 6 0
BBX 5 3 0 1
BITMAP
B8
B0
F0
ENDCHAR
STARTCHAR 2420
ENCODING 9248
SWIDTH 1200 0
DWIDTH 6 0
BBX 5 3 0 1
BITMAP
78
58
D0
ENDCHAR
STARTCHAR 2421
ENCODING 9249
SWIDTH 1200 0
DWIDTH 6 0
BBX 5 3 0 1
BITMAP
70
F0
F8
ENDCHAR
STARTCHAR 2424
ENCODING 9252
SWIDTH 1200 0
DWIDTH 6 0
BBX 5 3 0 1
BITMAP
D0
B0
B8
ENDCHAR
STARTCHAR 2500
ENCODING 9472
SWIDTH 1200 0
DWIDTH 6 0
BBX 5 1 0 2
BITMAP
F8
ENDCHAR
STARTCHAR 2502
ENCODING 9474
SWIDTH 1200 0
DWIDTH 6 0
BBX 1 5 2 0
BITMAP
80
80
80
80
80
ENDCHAR
STARTCHAR 250C
ENCODING 9484
SWIDTH 1200 0
DWIDTH 6 0
BBX 3 3 2 0
BITMAP
E0
80
80
ENDCHAR
STARTCHAR 2510
ENCODING 9488
SWIDTH 1200 0
DWIDTH 6 0
BBX 3 3 0 0
BITMAP
E0
20
20
ENDCHAR
STARTCHAR 2514
ENCODING 9492
SWIDTH 1200 0
DWIDTH 6 0
BBX 3 3 2 2
BITMAP
80
80
E0
ENDCHAR
STARTCHAR 2518
ENCODING 9496
SWIDTH 1200 0
DWIDTH 6 0
BBX 3 3 0 2
BITMAP
20
20
E0
ENDCHAR
STARTCHAR 251C
ENCODING 9500
SWIDTH 1200 0
DWIDTH 6 0
BBX 3 5 2 0
BITMAP
80
80
E0
80
80
ENDCHAR
STARTCHAR 2524
ENCODING 9508
SWIDTH 1200 0
DWIDTH 6 0
BBX 3 5 0 0
BITMAP
20
20
E0
20
20
ENDCHAR
STARTCHAR 252C
ENCODING 9516
SWIDTH 1200 0
DWIDTH 6 0
BBX 5 3 0 0
BITMAP
F8
20
20
ENDCHAR
STARTCHAR 2534
ENCODING 9524
SWIDTH 1200 0
DWIDTH 6 0
BBX 5 3 0 2
BITMAP
20
20
F8
ENDCHAR
STARTCHAR 253C
ENCODING 9532
SWIDTH 1200 0
DWIDTH 6 0
BBX 5 5 0 0
BITMAP
20
20
F8
20
20
ENDCHAR
STARTCHAR 2571
ENCODING 9585
SWIDTH 1200 0
DWIDTH 6 0
BBX 5 5 0 0
BITMAP
08
10
20
40
80
ENDCHAR
STARTCHAR 2572
ENCODING 9586
SWIDTH 1200 0
DWIDTH 6 0
BBX 5 5 0 0
BITMAP
80
40
20
10
08
ENDCHAR
STARTCHAR 2573
ENCODING 9587
SWIDTH 1200 0
DWIDTH 6 0
BBX 5 5 0 0
BITMAP
88
50
20
50
88
ENDCHAR
STARTCHAR 2588
ENCODING 9608
SWIDTH 1200 0
DWIDTH 6 0
BBX 5 5 0 0
BITMAP
F8
F8
F8
F8
F8
ENDCHAR
STARTCHAR 25A0
ENCODING 9632
SWIDTH 1200 0
DWIDTH 6 0
BBX 5 5 0 0
BITMAP
F8
F8
F8
F8
F8
ENDCHAR
STARTCHAR 25A1
ENCODING 9633
SWIDTH 1200 0
DWIDTH 6 0
BBX 5 5 0 0
BITMAP
F8
88
88
88
F8
ENDCHAR
STARTCHAR 25A4
ENCODING 9636
SWIDTH 1200 0
DWIDTH 6 0
BBX 5 5 0 0
BITMAP
F8
88
F8
88
F8
ENDCHAR
STARTCHAR 25A5
ENCODING 9637
SWIDTH 1200 0
DWIDTH 6 0
BBX 5 5 0 0
BITMAP
F8
A8
A8
A8
F8
ENDCHAR
STARTCHAR 25A6
ENCODING 9638
SWIDTH 1200 0
DWIDTH 6 0
BBX 5 5 0 0
BITMAP
F8
A8
F8
A8
F8
ENDCHAR
STARTCHAR 25A7
ENCODING 9639
SWIDTH 1200 0
DWIDTH 6 0
BBX 5 5 0 0
BITMAP
F8
C8
A8
98
F8
ENDCHAR
STARTCHAR 25A8
ENCODING 9640
SWIDTH 1200 0
DWIDTH 6 0
BBX 5 5 0 0
BITMAP
F8
98
A8
C8
F8
ENDCHAR
STARTCHAR 25A9
ENCODING 9641
SWIDTH 1200 0
DWIDTH 6 0
BBX 5 5 0 0
BITMAP
F8
D8
A8
D8
F8
ENDCHAR
STARTCHAR 25AA
ENCODING 9642
SWIDTH 1200 0
DWIDTH 6 0
BBX 3 3 1 1
BITMAP
E0
E0
E0
ENDCHAR
STARTCHAR 25AB
ENCODING 9643
SWIDTH 1200 0
DWIDTH 6 0
BBX 3 3 1 1
BITMAP
E0
A0
E0
ENDCHAR
STARTCHAR 25B2
ENCODING 9650
SWIDTH 1200 0
DWIDTH 6 0
BBX 5 5 0 0
BITMAP
20
20
70
70
F8
ENDCHAR
STARTCHAR 25CA
ENCODING 9674
SWIDTH 1200 0
DWIDTH 6 0
BBX 5 5 0 0
BITMAP
20
50
88
50
20
ENDCHAR
STARTCHAR 25CF
ENCODING 9679
SWIDTH 1200 0
DWIDTH 6 0
BBX 4 4 1 1
BITMAP
60
F0
F0
60
ENDCHAR
STARTCHAR 25FB
ENCODING 9723
SWIDTH 1200 0
DWIDTH 6 0
BBX 4 4 1 1
BITMAP
F0
90
90
F0
ENDCHAR
STARTCHAR 25FC
ENCODING 9724
SWIDTH 1200 0
DWIDTH 6 0
BBX 4 4 1 1
BITMAP
F0
F0
F0
F0
ENDCHAR
STARTCHAR 25FD
ENCODING 9725
SWIDTH 1200 0
DWIDTH 6 0
BBX 4 4 1 1
BITMAP
F0
90
90
F0
ENDCHAR
STARTCHAR 25FE
ENCODING 9726
SWIDTH 1200 0
DWIDTH 6 0
BBX 4 4 1 1
BITMAP
F0
F0
F0
F0
ENDCHAR
STARTCHAR 2600
ENCODING 9728
SWIDTH 1200 0
DWIDTH 6 0
BBX 5 5 0 0
BITMAP
20
88
70
88
20
ENDCHAR
STARTCHAR 2601
ENCODING 9729
SWIDTH 1200 0
DWIDTH 6 0
BBX 5 5 0 0
BITMAP
50
70
F8
F8
50
ENDCHAR
STARTCHAR 2602
ENCODING 9730
SWIDTH 1200 0
DWIDTH 6 0
BBX 5 5 0 0
BITMAP
70
F8
20
A0
40
ENDCHAR
STARTCHAR 2605
ENCODING 9733
SWIDTH 1200 0
DWIDTH 6 0
BBX 5 5 0 0
BITMAP
20
20
F8
50
88
ENDCHAR
STARTCHAR 2609
ENCODING 9737
SWIDTH 1200 0
DWIDTH 6 0
BBX 5 5 0 0
BITMAP
70
88
A8
88
70
ENDCHAR
STARTCHAR 260E
ENCODING 9742
SWIDTH 1200 0
DWIDTH 6 0
BBX 5 5 0 0
BITMAP
70
88
70
D8
F8
ENDCHAR
STARTCHAR 2610
ENCODING 9744
SWIDTH 1200 0
DWIDTH 6 0
BBX 5 5 0 0
BITMAP
F8
88
88
88
F8
ENDCHAR
STARTCHAR 2611
ENCODING 9745
SWIDTH 1200 0
DWIDTH 6 0
BBX 5 5 0 0
BITMAP
F8
98
D8
A8
F8
ENDCHAR
STARTCHAR 2612
ENCODING 9746
SWIDTH 1200 0
DWIDTH 6 0
BBX 5 5 0 0
BITMAP
F8
D8
A8
D8
F8
ENDCHAR
STARTCHAR 261E
ENCODING 9758
SWIDTH 1200 0
DWIDTH 6 0
BBX 5 4 0 1
BITMAP
60
F8
B0
E0
ENDCHAR
STARTCHAR 2620
ENCODING 9760
SWIDTH 1200 0
DWIDTH 6 0
BBX 5 5 0 0
BITMAP
70
A8
F8
70
88
ENDCHAR
STARTCHAR 2622
ENCODING 9762
SWIDTH 1200 0
DWIDTH 6 0
BBX 5 5 0 0
BITMAP
70
D8
A8
F8
70
ENDCHAR
STARTCHAR 2623
ENCODING 9763
SWIDTH 1200 0
DWIDTH 6 0
BBX 5 5 0 0
BITMAP
50
70
00
D8
50
ENDCHAR
STARTCHAR 263B
ENCODING 9787
SWIDTH 1200 0
DWIDTH 6 0
BBX 5 5 0 0
BITMAP
70
A8
F8
88
70
ENDCHAR
STARTCHAR 263E
ENCODING 9790
SWIDTH 1200 0
DWIDTH 6 0
BBX 3 5 1 0
BITMAP
60
C0
C0
C0
60
ENDCHAR
STARTCHAR 2640
ENCODING 9792
SWIDTH 1200 0
DWIDTH 6 0
BBX 3 5 1 0
BITMAP
40
A0
40
E0
40
ENDCHAR
STARTCHAR 2642
ENCODING 9794
SWIDTH 1200 0
DWIDTH 6 0
BBX 5 5 0 0
BITMAP
38
18
68
A0
40
ENDCHAR
STARTCHAR 2660
ENCODING 9824
SWIDTH 1200 0
DWIDTH 6 0
BBX 5 5 0 0
BITMAP
20
70
F8
A8
70
ENDCHAR
STARTCHAR 2663
ENCODING 9827
SWIDTH 1200 0
DWIDTH 6 0
BBX 5 5 0 0
BITMAP
70
A8
F8
A8
70
ENDCHAR
STARTCHAR 2665
ENCODING 9829
SWIDTH 1200 0
DWIDTH 6 0
BBX 5 5 0 0
BITMAP
50
F8
F8
70
20
ENDCHAR
STARTCHAR 2666
ENCODING 9830
SWIDTH 1200 0
DWIDTH 6 0
BBX 5 5 0 0
BITMAP
20
70
F8
70
20
ENDCHAR
STARTCHAR 266A
ENCODING 9834
SWIDTH 1200 0
DWIDTH 6 0
BBX 5 5 0 0
BITMAP
30
28
60
E0
40
ENDCHAR
STARTCHAR 266B
ENCODING 9835
SWIDTH 1200 0
DWIDTH 6 0
BBX 5 5 0 0
BITMAP
78
48
48
D8
D8
ENDCHAR
STARTCHAR 266D
ENCODING 9837
SWIDTH 1200 0
DWIDTH 6 0
BBX 3 5 1 0
BITMAP
80
80
E0
A0
C0
ENDCHAR
STARTCHAR 266E
ENCODING 9838
SWIDTH 1200 0
DWIDTH 6 0
BBX 3 5 1 0
BITMAP
80
E0
A0
E0
20
ENDCHAR
STARTCHAR 266F
ENCODING 9839
SWIDTH 1200 0
DWIDTH 6 0
BBX 5 5 0 0
BITMAP
58
70
D8
70
D0
ENDCHAR
STARTCHAR 267F
ENCODING 9855
SWIDTH 1200 0
DWIDTH 6 0
BBX 4 5 0 0
BITMAP
20
00
30
A0
50
ENDCHAR
STARTCHAR 2680
ENCODING 9856
SWIDTH 1200 0
DWIDTH 6 0
BBX 5 5 0 0
BITMAP
F8
88
A8
88
F8
ENDCHAR
STARTCHAR 2681
ENCODING 9857
SWIDTH 1200 0
DWIDTH 6 0
BBX 5 5 0 0
BITMAP
F8
98
88
C8
F8
ENDCHAR
STARTCHAR 2682
ENCODING 9858
SWIDTH 1200 0
DWIDTH 6 0
BBX 5 5 0 0
BITMAP
F8
98
A8
C8
F8
ENDCHAR
STARTCHAR 2683
ENCODING 9859
SWIDTH 1200 0
DWIDTH 6 0
BBX 5 5 0 0
BITMAP
F8
D8
88
D8
F8
ENDCHAR
STARTCHAR 2684
ENCODING 9860
SWIDTH 1200 0
DWIDTH 6 0
BBX 5 5 0 0
BITMAP
F8
D8
A8
D8
F8
ENDCHAR
STARTCHAR 2685
ENCODING 9861
SWIDTH 1200 0
DWIDTH 6 0
BBX 5 5 0 0
BITMAP
F8
D8
D8
D8
F8
ENDCHAR
STARTCHAR 2698
ENCODING 9880
SWIDTH 1200 0
DWIDTH 6 0
BBX 5 5 0 0
BITMAP
70
88
70
A8
70
ENDCHAR
STARTCHAR 26A0
ENCODING 9888
SWIDTH 1200 0
DWIDTH 6 0
BBX 5 5 0 0
BITMAP
20
A8
88
A8
F8
ENDCHAR
STARTCHAR 26A1
ENCODING 9889
SWIDTH 1200 0
DWIDTH 6 0
BBX 4 5 1 0
BITMAP
20
40
F0
20
40
ENDCHAR
STARTCHAR 26A4
ENCODING 9892
SWIDTH 1200 0
DWIDTH 6 0
BBX 5 5 0 0
BITMAP
40
B8
58
E8
50
ENDCHAR
STARTCHAR 26AD
ENCODING 9901
SWIDTH 1200 0
DWIDTH 6 0
BBX 5 4 0 1
BITMAP
70
A8
A8
70
ENDCHAR
STARTCHAR 2702
ENCODING 9986
SWIDTH 1200 0
DWIDTH 6 0
BBX 5 5 0 0
BITMAP
40
A8
70
A8
40
ENDCHAR
STARTCHAR 2709
ENCODING 9993
SWIDTH 1200 0
DWIDTH 6 0
BBX 5 5 0 0
BITMAP
F8
D8
A8
88
F8
ENDCHAR
STARTCHAR 270C
ENCODING 9996
SWIDTH 1200 0
DWIDTH 6 0
BBX 5 5 0 0
BITMAP
90
50
30
48
38
ENDCHAR
STARTCHAR 270D
ENCODING 9997
SWIDTH 1200 0
DWIDTH 6 0
BBX 5 5 0 0
BITMAP
08
10
30
48
B8
ENDCHAR
STARTCHAR 2713
ENCODING 10003
SWIDTH 1200 0
DWIDTH 6 0
BBX 4 5 1 0
BITMAP
10
10
20
A0
40
ENDCHAR
STARTCHAR 271C
ENCODING 10012
SWIDTH 1200 0
DWIDTH 6 0
BBX 3 3 1 1
BITMAP
40
A0
40
ENDCHAR
STARTCHAR 274C
ENCODING 10060
SWIDTH 1200 0
DWIDTH 6 0
BBX 5 5 0 0
BITMAP
88
50
20
50
88
ENDCHAR
STARTCHAR 274E
ENCODING 10062
SWIDTH 1200 0
DWIDTH 6 0
BBX 5 5 0 0
BITMAP
F8
A8
D8
A8
F8
ENDCHAR
STARTCHAR 274F
ENCODING 10063
SWIDTH 1200 0
DWIDTH 6 0
BBX 5 5 0 0
BITMAP
F0
98
98
F8
78
ENDCHAR
STARTCHAR 2753
ENCODING 10067
SWIDTH 1200 0
DWIDTH 6 0
BBX 4 5 1 0
BITMAP
60
B0
20
00
60
ENDCHAR
STARTCHAR 2756
ENCODING 10070
SWIDTH 1200 0
DWIDTH 6 0
BBX 5 5 0 0
BITMAP
D8
D8
00
D8
D8
ENDCHAR
STARTCHAR 2762
ENCODING 10082
SWIDTH 1200 0
DWIDTH 6 0
BBX 4 5 1 0
BITMAP
60
F0
60
00
60
ENDCHAR
STARTCHAR 2B1A
ENCODING 11034
SWIDTH 1200 0
DWIDTH 6 0
BBX 5 5 0 0
BITMAP
A8
00
88
00
A8
ENDCHAR
STARTCHAR 2B1B
ENCODING 11035
SWIDTH 1200 0
DWIDTH 6 0
BBX 5 5 0 0
BITMAP
F8
F8
F8
F8
F8
ENDCHAR
STARTCHAR 2B1C
ENCODING 11036
SWIDTH 1200 0
DWIDTH 6 0
BBX 5 5 0 0
BITMAP
F8
88
88
88
F8
ENDCHAR
STARTCHAR 2B1D
ENCODING 11037
SWIDTH 1200 0
DWIDTH 6 0
BBX 2 2 2 1
BITMAP
C0
C0
ENDCHAR
STARTCHAR 2B24
ENCODING 11044
SWIDTH 1200 0
DWIDTH 6 0
BBX 5 5 0 0
BITMAP
70
F8
F8
F8
70
ENDCHAR
STARTCHAR 2E18
ENCODING 11800
SWIDTH 1200 0
DWIDTH 6 0
BBX 4 5 1 0
BITMAP
40
00
60
50
E0
ENDCHAR
STARTCHAR 2E2C
ENCODING 11820
SWIDTH 1200 0
DWIDTH 6 0
BBX 4 4 1 0
BITMAP
90
00
00
90
ENDCHAR
STARTCHAR 2E2E
ENCODING 11822
SWIDTH 1200 0
DWIDTH 6 0
BBX 4 5 1 0
BITMAP
70
80
60
00
20
ENDCHAR
STARTCHAR F8FF
ENCODING 63743
SWIDTH 1200 0
DWIDTH 6 0
BBX 5 5 0 0
BITMAP
20
F8
F0
F8
50
ENDCHAR
STARTCHAR FB01
ENCODING 64257
SWIDTH 1200 0
DWIDTH 6 0
BBX 5 5 0 0
BITMAP
28
40
E8
48
48
ENDCHAR
STARTCHAR FB02
ENCODING 64258
SWIDTH 1200 0
DWIDTH 6 0
BBX 5 5 0 0
BITMAP
30
50
F0
50
48
ENDCHAR
STARTCHAR FFFD
ENCODING 65533
SWIDTH 1200 0
DWIDTH 6 0
BBX 4 5 1 0
BITMAP
60
90
D0
B0
60
ENDCHAR
ENDFONT
